# xmcd CD database file
#
# Track frame offsets:
#	150
#	18054
#	28724
#	41217
#	60715
#	74932
#	89766
#	104200
#	119647
#	138269
#	152117
#	168355
#
# Disc length: 2389 seconds
#
# Revision: 0
# Processed by: cddbd v1.5.2PL0 Copyright (c) Steve Scherf et al.
# Submitted via: CDex 1.51
#
DISCID=b509530c
DTITLE=Nico Wayne Toussaint and Michel Foizon - On The Go
DYEAR=2014
DGENRE=Blues
TTITLE0=GO ON GREYHOUND
TTITLE1=DON´T LET NOBODY BRING YOU DOWN
TTITLE2=GIVE ME BACK THE KEY
TTITLE3=HOW LONG TO HEAL
TTITLE4=BURNING LIGHT
TTITLE5=LONELY NUMBER
TTITLE6=SHINING THROUGHT
TTITLE7=YOU CAN LEAVE YOUR HAT ON
TTITLE8=SAINT JAMES INFIRMARY
TTITLE9=ALBERTA
TTITLE10=CAN´T YOU TELL
TTITLE11=WHEN WILL IT BE
EXTD=YEAR: 2014
EXTT0=
EXTT1=
EXTT2=
EXTT3=
EXTT4=
EXTT5=
EXTT6=
EXTT7=
EXTT8=
EXTT9=
EXTT10=
EXTT11=
PLAYORDER=
